<svg style="clip-rule:evenodd;fill-rule:evenodd;stroke-linejoin:round;stroke-miterlimit:2" version="1.1" viewBox="0 0 50 50" xmlns="http://www.w3.org/2000/svg">
 <path d="M50,5.447C50,2.439 47.561,0 44.553,-0L5.447,-0C2.439,0 0,2.439 -0,5.447L0,44.553C0,47.561 2.439,50 5.447,50L44.553,50C47.561,50 50,47.561 50,44.553L50,5.447Z" style="fill:#2d5876"/>
 <clipPath id="_clip1">
  <path d="M50,5.447C50,2.439 47.561,0 44.553,-0L5.447,-0C2.439,0 0,2.439 -0,5.447L0,44.553C0,47.561 2.439,50 5.447,50L44.553,50C47.561,50 50,47.561 50,44.553L50,5.447Z"/>
 </clipPath>
 <g clip-path="url(#_clip1)">
  <rect x="-3.833" y="-2.208" width="62.77" height="22.154" style="fill:#4985ad"/>
  <circle cx="39.738" cy="10.081" r="7.703" style="fill:#2d5876"/>
 </g>
</svg>
